# xmcd CD database file
#
# Track frame offsets:
#	150
#	18347
#	33995
#	48147
#	62330
#	75467
#	88955
#	104195
#	117762
#	130985
#	145495
#	159450
#	172437
#
# Disc length: 2490 seconds
#
# Revision: 0
# Processed by: cddbd v1.5.2PL0 Copyright (c) Steve Scherf et al.
# Submitted via: CDex 1.40Beta8
#
DISCID=b109b80d
DTITLE=Delmiro Barros - Enchendo e Derramando
DYEAR=2005
DGENRE=Forró
TTITLE0=Cajueiro
TTITLE1=Adeus
TTITLE2=Como Te Vejo
TTITLE3=Coração Desarrumado
TTITLE4=Eu Sem Você
TTITLE5=Migalhas de Amor
TTITLE6=Fonte de Amor
TTITLE7=Morrendo de Amor
TTITLE8=Quero Você
TTITLE9=Cheiro de Nós
TTITLE10=Linda Flôr
TTITLE11=Forró da Veneza (Sala de Reboco)
TTITLE12=Enchendo e Derramando
EXTD=YEAR: 2005
EXTT0=
EXTT1=
EXTT2=
EXTT3=
EXTT4=
EXTT5=
EXTT6=
EXTT7=
EXTT8=
EXTT9=
EXTT10=
EXTT11=
EXTT12=
PLAYORDER=
